# xmcd
#
# Track frame offsets: 
#        150
#        14280
#        30227
#        41152
#        56988
#        78576
#        94818
#        114102
#        132217
#        148627
#        169069
#
# Disc length: 2483 seconds
#
# Revision: 6
# Processed by: cddbd v1.5.2PL0 Copyright (c) Steve Scherf et al.
# Submitted via: ExactAudioCopy v0.99pb5
#
DISCID=8b09b10b
DTITLE=Deftones - Diamond Eyes
DYEAR=2010
DGENRE=Rock
TTITLE0=Diamond Eyes
TTITLE1=Royal
TTITLE2=CMND/CTRL
TTITLE3=You've Seen the Butcher
TTITLE4=Beauty School
TTITLE5=Prince
TTITLE6=Rocket Skates
TTITLE7=Sextape
TTITLE8=Risk
TTITLE9=976-Evil
TTITLE10=This Place Is Death
EXTD=YEAR: 2010
EXTT0=
EXTT1=
EXTT2=
EXTT3=
EXTT4=
EXTT5=
EXTT6=
EXTT7=
EXTT8=
EXTT9=
EXTT10=
PLAYORDER=
